<svg width="114" height="38" viewBox="0 0 114 38" fill="none" xmlns="http://www.w3.org/2000/svg">
<g clip-path="url(#clip0)">
<path d="M114.001 0H63.8516V37.9973H114.001V0Z" fill="#E95957"/>
<path d="M63.8529 0.00390625H0V38.0011H63.8529V0.00390625Z" fill="black"/>
<path d="M23.0051 20.9614C23.973 20.5886 24.795 19.9159 25.3499 19.0424C25.9068 18.1399 26.1541 17.0815 26.0545 16.0267C25.9563 14.9608 25.549 13.9463 24.882 13.107C23.0904 10.8892 20.1125 11.0207 19.7685 11.0399L13.2266 10.9824V25.6796H16.6723V21.6167H19.8153L22.606 25.7042H26.2664L23.0051 20.9614ZM21.962 18.0774C21.1914 18.9163 20.0025 18.8724 19.6997 18.8834H16.6338C16.6338 17.1891 16.6384 15.4967 16.6476 13.8061H19.9144C20.3859 13.7918 20.853 13.9015 21.2685 14.1241C21.5777 14.3119 21.8561 14.5458 22.0941 14.8177C22.4476 15.295 22.6271 15.8781 22.6031 16.4707C22.5791 17.0633 22.3529 17.63 21.962 18.0774Z" fill="white"/>
<path d="M38.0208 15.5965C36.8455 14.6518 35.3657 14.1647 33.8568 14.2258C33.1275 14.2258 31.2175 14.2614 29.5799 15.7199C28.9705 16.2801 28.4817 16.9578 28.143 17.7117C27.8042 18.4657 27.6227 19.2804 27.6094 20.1063C27.6257 21.627 28.2242 23.0842 29.2827 24.1802C31.0248 25.9402 33.2733 25.9155 33.8953 25.9073C34.4457 25.9073 36.9062 25.8717 38.6483 23.8978C39.563 22.8422 40.0772 21.5006 40.1014 20.1063C40.0903 19.2515 39.8993 18.4085 39.541 17.6317C39.1826 16.855 38.6647 16.1616 38.0208 15.5965ZM33.8513 23.196C32.2385 23.196 30.934 21.7923 30.934 20.0597C30.934 18.3271 32.2385 16.9207 33.8513 16.9207C35.464 16.9207 36.7658 18.3271 36.7658 20.0597C36.7658 21.7923 35.4668 23.196 33.8513 23.196Z" fill="white"/>
<path d="M51.0064 15.2157C50.3493 14.9153 49.662 14.6856 48.9561 14.5303C48.0657 14.3403 47.1551 14.2611 46.2452 14.2945C45.6965 14.3075 45.1505 14.3764 44.6159 14.5001C44.2609 14.5797 43.9151 14.6955 43.5839 14.8455C42.9469 15.1008 42.3947 15.5292 41.9904 16.082C41.6272 16.6188 41.4239 17.2471 41.4041 17.8941C41.3591 18.4395 41.4769 18.986 41.7427 19.465C42.0076 19.8841 42.375 20.2294 42.8105 20.4684C43.2404 20.716 43.7038 20.9007 44.1866 21.0167C44.843 21.1819 45.5095 21.3046 46.1819 21.384C47.3818 21.565 47.913 21.6171 48.1084 22.0036C48.1802 22.1518 48.207 22.3176 48.1855 22.4806C48.136 22.73 47.9909 22.9503 47.7809 23.0947C47.5119 23.2718 47.2002 23.3741 46.8782 23.3908C46.4213 23.4485 45.959 23.4485 45.5021 23.3908C45.1105 23.3478 44.7224 23.2773 44.3407 23.1797C44.0455 23.1093 43.7557 23.0177 43.4738 22.9056C43.2416 22.8077 43.0147 22.6979 42.794 22.5766C42.5683 22.456 42.3812 22.3463 42.2436 22.2613L41.1289 24.6464C42.5146 25.3988 44.0548 25.8255 45.6315 25.8938C46.5975 25.9322 48.3093 25.9761 49.8423 24.9617C50.3578 24.6473 50.7819 24.204 51.0725 23.6759C51.4269 22.9868 51.5065 22.1896 51.2954 21.4444C50.8496 20.0297 49.3689 19.5034 48.9506 19.3526C48.567 19.2328 48.1752 19.1411 47.7782 19.0784C47.2112 18.9688 46.7213 18.9085 45.8516 18.7275C45.3755 18.6288 44.9297 18.5274 44.6792 18.1792C44.5725 18.0562 44.5138 17.899 44.5138 17.7365C44.5138 17.5739 44.5725 17.4167 44.6792 17.2937C45.0287 16.8112 46.0333 16.7454 46.369 16.7207C47.164 16.6729 47.9607 16.781 48.7139 17.0388C49.1177 17.1741 49.5068 17.3495 49.8753 17.5624L51.0064 15.2157Z" fill="white"/>
<path d="M59.8704 14.7018H57.0577V11.9219H53.7743V14.7018H52.0625V17.2459H53.7743L53.7909 21.9065C53.7477 22.908 54.0892 23.8883 54.7459 24.648C55.0911 25.0077 55.5046 25.2956 55.9623 25.4951C56.7698 25.8578 57.6634 25.987 58.5411 25.8679C59.3186 25.7869 60.0696 25.54 60.7428 25.1442C60.4318 24.3875 60.1208 23.6281 59.8126 22.8715C59.675 22.9636 59.5295 23.0434 59.3777 23.11C59.1604 23.2149 58.9269 23.2825 58.687 23.3101C58.3564 23.3432 58.0237 23.2733 57.7347 23.11C57.0687 22.7042 57.0494 21.8297 57.0494 21.7612C57.0494 20.2552 57.0558 18.7483 57.0687 17.2404H59.8814L59.8704 14.7018Z" fill="white"/>
<path d="M100.623 14.7018H97.8076V11.9219H94.5243V14.7018H92.8125V17.2459H94.5243L94.5408 21.9065C94.499 22.9083 94.8414 23.8885 95.4986 24.648C95.8425 25.0081 96.2551 25.2961 96.7123 25.4951C97.5207 25.8579 98.4152 25.9871 99.2938 25.8679C100.067 25.7859 100.813 25.5391 101.482 25.1442C101.171 24.3875 100.863 23.6281 100.552 22.8715C100.414 22.9636 100.268 23.0434 100.117 23.11C99.8995 23.2153 99.6659 23.283 99.4259 23.3101C99.0962 23.3434 98.7643 23.2734 98.4764 23.11C97.8104 22.7042 97.7911 21.8297 97.7911 21.7612L97.8076 17.2404H100.623V14.7018Z" fill="white"/>
<path d="M76.6873 11.0566H73.3324L66.8125 25.6332L70.283 25.6798L71.5738 22.5051H78.3523L79.7119 25.6578H83.276L76.6873 11.0566ZM72.6581 19.9802L74.9562 14.3985L77.3368 19.9802H72.6581Z" fill="white"/>
<path d="M87.8498 25.6571H84.5664V14.4444H87.7204V15.9111C88.01 15.5547 88.3546 15.2466 88.7415 14.9982C89.5778 14.4771 90.5595 14.236 91.5432 14.31V17.2133C91.1703 17.1541 90.7904 17.1541 90.4175 17.2133C89.6519 17.3052 88.9487 17.6799 88.447 18.2633C88.0367 18.7947 87.8255 19.4521 87.8498 20.122V25.6571Z" fill="white"/>
</g>
<defs>
<clipPath id="clip0">
<rect width="114" height="38" fill="white"/>
</clipPath>
</defs>
</svg>
